<svg width="125" height="26" viewBox="0 0 125 26" fill="none" xmlns="http://www.w3.org/2000/svg">
<path d="M42.712 11.608C42.404 11.2853 42.0813 11.0287 41.744 10.838C41.4067 10.6473 41.062 10.552 40.71 10.552C40.226 10.552 39.7933 10.64 39.412 10.816C39.0307 10.992 38.7007 11.2267 38.422 11.52C38.158 11.8133 37.9527 12.1507 37.806 12.532C37.674 12.9133 37.608 13.3093 37.608 13.72C37.608 14.1307 37.674 14.5267 37.806 14.908C37.9527 15.2893 38.158 15.6267 38.422 15.92C38.7007 16.2133 39.0307 16.448 39.412 16.624C39.7933 16.8 40.226 16.888 40.71 16.888C41.1207 16.888 41.502 16.8073 41.854 16.646C42.206 16.47 42.5067 16.2207 42.756 15.898L44.516 17.79C44.252 18.054 43.944 18.2813 43.592 18.472C43.2547 18.6627 42.91 18.8167 42.558 18.934C42.206 19.0513 41.8687 19.132 41.546 19.176C41.2233 19.2347 40.9447 19.264 40.71 19.264C39.918 19.264 39.17 19.132 38.466 18.868C37.762 18.604 37.1533 18.23 36.64 17.746C36.1267 17.262 35.716 16.6827 35.408 16.008C35.1147 15.3187 34.968 14.556 34.968 13.72C34.968 12.884 35.1147 12.1287 35.408 11.454C35.716 10.7647 36.1267 10.178 36.64 9.694C37.1533 9.21 37.762 8.836 38.466 8.572C39.17 8.308 39.918 8.176 40.71 8.176C41.3847 8.176 42.0593 8.308 42.734 8.572C43.4233 8.82133 44.0247 9.22467 44.538 9.782L42.712 11.608ZM48.2213 14.644C48.3093 15.436 48.6173 16.052 49.1453 16.492C49.6733 16.932 50.3113 17.152 51.0593 17.152C51.7193 17.152 52.2693 17.02 52.7093 16.756C53.1639 16.4773 53.5599 16.1327 53.8973 15.722L55.7893 17.152C55.1733 17.9147 54.4839 18.4573 53.7213 18.78C52.9586 19.1027 52.1593 19.264 51.3233 19.264C50.5313 19.264 49.7833 19.132 49.0793 18.868C48.3753 18.604 47.7666 18.23 47.2533 17.746C46.7399 17.262 46.3293 16.6827 46.0213 16.008C45.7279 15.3187 45.5813 14.556 45.5813 13.72C45.5813 12.884 45.7279 12.1287 46.0213 11.454C46.3293 10.7647 46.7399 10.178 47.2533 9.694C47.7666 9.21 48.3753 8.836 49.0793 8.572C49.7833 8.308 50.5313 8.176 51.3233 8.176C52.0566 8.176 52.7239 8.308 53.3253 8.572C53.9413 8.82133 54.4619 9.188 54.8873 9.672C55.3273 10.156 55.6646 10.7573 55.8993 11.476C56.1486 12.18 56.2733 12.994 56.2733 13.918V14.644H48.2213ZM53.6333 12.664C53.6186 11.8867 53.3766 11.278 52.9073 10.838C52.4379 10.3833 51.7853 10.156 50.9493 10.156C50.1573 10.156 49.5266 10.3833 49.0573 10.838C48.6026 11.2927 48.3239 11.9013 48.2213 12.664H53.6333ZM58.7421 8.44H61.2501V10.134H61.2941C61.5434 9.606 61.9248 9.15133 62.4381 8.77C62.9514 8.374 63.6481 8.176 64.5281 8.176C65.2321 8.176 65.8261 8.29333 66.3101 8.528C66.8088 8.76267 67.2121 9.07067 67.5201 9.452C67.8281 9.83333 68.0481 10.2733 68.1801 10.772C68.3121 11.2707 68.3781 11.7913 68.3781 12.334V19H65.7381V13.654C65.7381 13.3607 65.7234 13.038 65.6941 12.686C65.6648 12.3193 65.5841 11.982 65.4521 11.674C65.3348 11.3513 65.1441 11.0873 64.8801 10.882C64.6161 10.662 64.2568 10.552 63.8021 10.552C63.3621 10.552 62.9881 10.6253 62.6801 10.772C62.3868 10.9187 62.1374 11.1167 61.9321 11.366C61.7414 11.6153 61.6021 11.9013 61.5141 12.224C61.4261 12.5467 61.3821 12.884 61.3821 13.236V19H58.7421V8.44ZM70.1429 10.684V8.44H72.3209V5.382H74.9609V8.44H77.8649V10.684H74.9609V15.304C74.9609 15.832 75.0562 16.25 75.2469 16.558C75.4522 16.866 75.8482 17.02 76.4349 17.02C76.6696 17.02 76.9262 16.998 77.2049 16.954C77.4836 16.8953 77.7036 16.8073 77.8649 16.69V18.912C77.5862 19.044 77.2416 19.132 76.8309 19.176C76.4349 19.2347 76.0829 19.264 75.7749 19.264C75.0709 19.264 74.4916 19.1833 74.0369 19.022C73.5969 18.8753 73.2449 18.648 72.9809 18.34C72.7316 18.0173 72.5556 17.6213 72.4529 17.152C72.3649 16.6827 72.3209 16.14 72.3209 15.524V10.684H70.1429ZM79.9257 17.46C79.9257 16.9907 80.0944 16.5873 80.4317 16.25C80.7837 15.9127 81.2017 15.744 81.6857 15.744C82.155 15.744 82.5657 15.9053 82.9177 16.228C83.2697 16.5507 83.4457 16.9467 83.4457 17.416C83.4457 17.8853 83.2697 18.2887 82.9177 18.626C82.5804 18.9633 82.1697 19.132 81.6857 19.132C81.451 19.132 81.2237 19.088 81.0037 19C80.7984 18.912 80.615 18.7947 80.4537 18.648C80.2924 18.5013 80.1604 18.3253 80.0577 18.12C79.9697 17.9147 79.9257 17.6947 79.9257 17.46Z" fill="#859DBD"/>
<path d="M93.0355 17.548H92.9695C92.5881 18.1493 92.1041 18.5893 91.5175 18.868C90.9308 19.132 90.2855 19.264 89.5815 19.264C89.0975 19.264 88.6208 19.198 88.1515 19.066C87.6968 18.934 87.2861 18.736 86.9195 18.472C86.5675 18.208 86.2815 17.878 86.0615 17.482C85.8415 17.086 85.7315 16.624 85.7315 16.096C85.7315 15.524 85.8341 15.04 86.0395 14.644C86.2448 14.2333 86.5161 13.896 86.8535 13.632C87.2055 13.3533 87.6088 13.1333 88.0635 12.972C88.5181 12.8107 88.9875 12.6933 89.4715 12.62C89.9701 12.532 90.4688 12.4807 90.9675 12.466C91.4661 12.4367 91.9355 12.422 92.3755 12.422H93.0355V12.136C93.0355 11.476 92.8081 10.9847 92.3535 10.662C91.8988 10.3247 91.3195 10.156 90.6155 10.156C90.0581 10.156 89.5375 10.2587 89.0535 10.464C88.5695 10.6547 88.1515 10.9187 87.7995 11.256L86.4135 9.87C87.0001 9.26867 87.6821 8.836 88.4595 8.572C89.2515 8.308 90.0655 8.176 90.9015 8.176C91.6495 8.176 92.2801 8.264 92.7935 8.44C93.3068 8.60133 93.7321 8.814 94.0695 9.078C94.4068 9.342 94.6635 9.65 94.8395 10.002C95.0301 10.3393 95.1621 10.684 95.2355 11.036C95.3235 11.388 95.3748 11.7327 95.3895 12.07C95.4041 12.3927 95.4115 12.6787 95.4115 12.928V19H93.0355V17.548ZM92.8815 14.27H92.3315C91.9648 14.27 91.5541 14.2847 91.0995 14.314C90.6448 14.3433 90.2121 14.4167 89.8015 14.534C89.4055 14.6367 89.0681 14.798 88.7895 15.018C88.5108 15.2233 88.3715 15.5167 88.3715 15.898C88.3715 16.1473 88.4228 16.36 88.5255 16.536C88.6428 16.6973 88.7895 16.8367 88.9655 16.954C89.1415 17.0713 89.3395 17.1593 89.5595 17.218C89.7795 17.262 89.9995 17.284 90.2195 17.284C91.1288 17.284 91.7961 17.0713 92.2215 16.646C92.6615 16.206 92.8815 15.612 92.8815 14.864V14.27ZM98.2519 8.44H100.76V10.024H100.804C101.185 9.37867 101.699 8.90933 102.344 8.616C102.989 8.32267 103.686 8.176 104.434 8.176C105.241 8.176 105.967 8.32267 106.612 8.616C107.257 8.89467 107.807 9.28333 108.262 9.782C108.717 10.2807 109.061 10.8673 109.296 11.542C109.531 12.2167 109.648 12.9427 109.648 13.72C109.648 14.4973 109.523 15.2233 109.274 15.898C109.025 16.5727 108.673 17.1593 108.218 17.658C107.778 18.1567 107.243 18.5527 106.612 18.846C105.981 19.1247 105.292 19.264 104.544 19.264C104.045 19.264 103.605 19.2127 103.224 19.11C102.843 19.0073 102.505 18.8753 102.212 18.714C101.919 18.5527 101.669 18.384 101.464 18.208C101.259 18.0173 101.09 17.834 100.958 17.658H100.892V24.016H98.2519V8.44ZM107.008 13.72C107.008 13.3093 106.935 12.9133 106.788 12.532C106.656 12.1507 106.451 11.8133 106.172 11.52C105.908 11.2267 105.585 10.992 105.204 10.816C104.823 10.64 104.39 10.552 103.906 10.552C103.422 10.552 102.989 10.64 102.608 10.816C102.227 10.992 101.897 11.2267 101.618 11.52C101.354 11.8133 101.149 12.1507 101.002 12.532C100.87 12.9133 100.804 13.3093 100.804 13.72C100.804 14.1307 100.87 14.5267 101.002 14.908C101.149 15.2893 101.354 15.6267 101.618 15.92C101.897 16.2133 102.227 16.448 102.608 16.624C102.989 16.8 103.422 16.888 103.906 16.888C104.39 16.888 104.823 16.8 105.204 16.624C105.585 16.448 105.908 16.2133 106.172 15.92C106.451 15.6267 106.656 15.2893 106.788 14.908C106.935 14.5267 107.008 14.1307 107.008 13.72ZM112.109 8.44H114.617V10.024H114.661C115.043 9.37867 115.556 8.90933 116.201 8.616C116.847 8.32267 117.543 8.176 118.291 8.176C119.098 8.176 119.824 8.32267 120.469 8.616C121.115 8.89467 121.665 9.28333 122.119 9.782C122.574 10.2807 122.919 10.8673 123.153 11.542C123.388 12.2167 123.505 12.9427 123.505 13.72C123.505 14.4973 123.381 15.2233 123.131 15.898C122.882 16.5727 122.53 17.1593 122.075 17.658C121.635 18.1567 121.1 18.5527 120.469 18.846C119.839 19.1247 119.149 19.264 118.401 19.264C117.903 19.264 117.463 19.2127 117.081 19.11C116.7 19.0073 116.363 18.8753 116.069 18.714C115.776 18.5527 115.527 18.384 115.321 18.208C115.116 18.0173 114.947 17.834 114.815 17.658H114.749V24.016H112.109V8.44ZM120.865 13.72C120.865 13.3093 120.792 12.9133 120.645 12.532C120.513 12.1507 120.308 11.8133 120.029 11.52C119.765 11.2267 119.443 10.992 119.061 10.816C118.68 10.64 118.247 10.552 117.763 10.552C117.279 10.552 116.847 10.64 116.465 10.816C116.084 10.992 115.754 11.2267 115.475 11.52C115.211 11.8133 115.006 12.1507 114.859 12.532C114.727 12.9133 114.661 13.3093 114.661 13.72C114.661 14.1307 114.727 14.5267 114.859 14.908C115.006 15.2893 115.211 15.6267 115.475 15.92C115.754 16.2133 116.084 16.448 116.465 16.624C116.847 16.8 117.279 16.888 117.763 16.888C118.247 16.888 118.68 16.8 119.061 16.624C119.443 16.448 119.765 16.2133 120.029 15.92C120.308 15.6267 120.513 15.2893 120.645 14.908C120.792 14.5267 120.865 14.1307 120.865 13.72Z" fill="#0687F8"/>
<path d="M12.5 26C19.4036 26 25 20.4036 25 13.5C25 6.59644 19.4036 1 12.5 1C5.59644 1 0 6.59644 0 13.5C0 20.4036 5.59644 26 12.5 26Z" fill="#0687F8"/>
</svg>
